<svg viewBox="0 0 138 138" style="overflow: hidden; position: relative;" xmlns="http://www.w3.org/2000/svg" width="138" version="1.1" height="138"><desc>Created with Raphaël 2.1.0</desc><defs><linearGradient gradientTransform="matrix(1,0,0,1,0,0)" y2="0" x2="6.123233995736766e-17" y1="1" x1="0" id="184790-_03CA45-_AF00AA"><stop stop-color="#03ca45" offset="0%"></stop><stop stop-color="#af00aa" offset="100%"></stop></linearGradient></defs><path stroke-width="0.2631578947368421" transform="matrix(3.8,0,0,3.8,8.2,8.2)" fill-opacity="1" opacity="1" d="M16,1.466C7.973,1.466,1.466,7.973,1.466,16C1.466,24.027,7.973,30.534,16,30.534C24.027,30.534,30.534,24.027,30.534,15.999999999999998C30.534,7.973,24.027,1.466,16,1.466ZM17.328,24.371H14.620999999999999V21.775H17.328V24.371ZM17.328,19.003V19.861H14.620999999999999V18.804000000000002C14.620999999999999,15.614000000000003,18.250999999999998,15.108000000000002,18.250999999999998,12.841000000000001C18.250999999999998,11.807,17.326999999999998,11.015,16.116999999999997,11.015C14.862999999999998,11.015,13.762999999999998,11.939,13.762999999999998,11.939L12.221999999999998,10.024000000000001C12.221999999999998,10.024000000000001,13.740999999999998,8.440000000000001,16.358999999999998,8.440000000000001C18.845999999999997,8.440000000000001,21.154999999999998,9.98,21.154999999999998,12.576C21.156,16.208,17.328,16.627,17.328,19.003Z" stroke="none" fill="url(#184790-_03CA45-_AF00AA)" style="opacity: 1; fill-opacity: 1;"></path><path transform="matrix(1,0,0,1,0,0)" fill-opacity="0.3" d="M0,0" stroke="none" fill="#ffffff" style="fill-opacity: 0.3;"></path></svg>